<?xml version="1.0" encoding="UTF-8"?>
<svg id="Layer_1" data-name="Layer 1" xmlns="http://www.w3.org/2000/svg" viewBox="0 0 1050.85 905.07">
  <defs>
    <style>
      .cls-1 {
        fill: #253551;
      }
    </style>
  </defs>
  <g>
    <path class="cls-1" d="m129.73,773.48c30.65,0,53.77,17.25,61.12,45.15h-34.5c-5.32-11.01-15.05-16.52-26.98-16.52-19.27,0-32.48,14.31-32.48,37.07s13.21,37.07,32.48,37.07c11.93,0,21.66-5.51,26.98-16.52h34.5c-7.34,27.9-30.47,44.97-61.12,44.97-37.99,0-64.79-26.98-64.79-65.52s26.8-65.7,64.79-65.7h0Z"/>
    <path class="cls-1" d="m307.76,905.07c-36.52,0-66.25-27.35-66.25-66.07s29.73-65.89,66.25-65.89,65.89,27.16,65.89,65.89-29.36,66.07-65.89,66.07Zm0-28.63c20.56,0,33.95-14.87,33.95-37.44s-13.4-37.44-33.95-37.44-34.14,14.5-34.14,37.44,13.21,37.44,34.14,37.44Z"/>
    <path class="cls-1" d="m543.59,839.37c0,38.17-26.43,64.42-67.54,64.42h-48.27v-128.84h48.27c41.11,0,67.54,26.06,67.54,64.42h0Zm-69.56,37.26c23.68,0,37.62-13.58,37.62-37.26s-13.95-37.62-37.62-37.62h-14.87v74.88h14.87Z"/>
    <path class="cls-1" d="m597.92,774.95h31.38v128.84h-31.38v-128.84h0Z"/>
    <path class="cls-1" d="m804.02,774.95v128.84h-31.38l-52.49-79.47v79.47h-31.38v-128.84h31.38l52.49,79.84v-79.84h31.38Z"/>
    <path class="cls-1" d="m983.7,815.69h-34.69c-4.77-8.63-13.58-13.21-25.33-13.21-20.19,0-33.59,14.32-33.59,36.71,0,23.86,13.58,37.81,36.16,37.81,15.6,0,26.43-8.26,31.2-22.76h-39.83v-23.12h68.27v29.18c-6.61,22.21-28.08,44.41-62.03,44.41-38.54,0-65.7-26.98-65.7-65.52s26.98-65.7,65.52-65.7c30.83,0,53.22,15.78,60.01,42.21h.01Z"/>
  </g>
  <g>
    <path class="cls-1" d="m0,351.12v-41.83c44.18-8.25,60.09-32.4,60.09-61.86,0-45.95-11.78-110.17-11.78-160.24C48.31,29.46,84.24,0,136.09,0h34.17v46.54h-24.15c-29.46,0-45.36,12.37-45.36,44.18,0,44.77,11.19,109.58,11.19,158.47,0,40.06-18.85,70.69-63.63,80.12v1.18c44.77,10.02,63.63,40.65,63.63,80.71,0,48.9-11.19,113.7-11.19,158.47,0,31.81,15.91,44.18,45.36,44.18h24.15v46.54h-34.17c-51.84,0-87.78-29.46-87.78-87.19,0-50.08,11.78-114.29,11.78-160.24,0-29.46-15.91-53.61-60.09-61.86v.02Z"/>
    <path class="cls-1" d="m990.76,412.97c0,45.95,11.78,110.17,11.78,160.24,0,57.73-35.94,87.19-87.78,87.19h-34.17v-46.54h24.15c29.46,0,45.36-12.37,45.36-44.18,0-44.77-11.19-109.58-11.19-158.47,0-40.06,18.85-70.69,63.63-80.71v-1.18c-44.77-9.43-63.63-40.06-63.63-80.12,0-48.9,11.19-113.7,11.19-158.47,0-31.81-15.91-44.18-45.36-44.18h-24.15V0h34.17c51.84,0,87.78,29.46,87.78,87.19,0,50.08-11.78,114.29-11.78,160.24,0,29.46,15.91,53.61,60.09,61.86v41.83c-44.18,8.25-60.09,32.4-60.09,61.86h0Z"/>
    <path class="cls-1" d="m880.59,88.6v463.88l-37.66,6.06c-137.04,21.96-235.92,68.07-294.75,102.85l-22.76,13.52-22.76-13.52c-58.83-34.78-157.71-80.89-294.75-102.85l-37.66-6.06V88.7l54.06,11.53c85.56,18.28,159.9,50.58,221.11,96l80,59.43,80-59.43c61.22-45.41,135.55-77.71,221.11-96l54.06-11.63h0Z"/>
  </g>
</svg>