<?xml version="1.0" encoding="UTF-8"?>
<svg id="Layer_1" data-name="Layer 1" xmlns="http://www.w3.org/2000/svg" viewBox="0 0 1050.85 674.92">
  <defs>
    <style>
      .cls-1 {
        fill: #fff;
      }
    </style>
  </defs>
  <path class="cls-1" d="m0,351.12v-41.83c44.18-8.25,60.09-32.4,60.09-61.86,0-45.95-11.78-110.17-11.78-160.24C48.31,29.46,84.24,0,136.09,0h34.17v46.54h-24.15c-29.46,0-45.36,12.37-45.36,44.18,0,44.77,11.19,109.58,11.19,158.47,0,40.06-18.85,70.69-63.63,80.12v1.18c44.77,10.02,63.63,40.65,63.63,80.71,0,48.9-11.19,113.7-11.19,158.47,0,31.81,15.91,44.18,45.36,44.18h24.15v46.54h-34.17c-51.84,0-87.78-29.46-87.78-87.19,0-50.08,11.78-114.29,11.78-160.24,0-29.46-15.91-53.61-60.09-61.86Z"/>
  <path class="cls-1" d="m990.76,412.97c0,45.95,11.78,110.17,11.78,160.24,0,57.73-35.94,87.19-87.78,87.19h-34.17v-46.54h24.15c29.46,0,45.36-12.37,45.36-44.18,0-44.77-11.19-109.58-11.19-158.47,0-40.06,18.85-70.69,63.63-80.71v-1.18c-44.77-9.43-63.63-40.06-63.63-80.12,0-48.9,11.19-113.7,11.19-158.47,0-31.81-15.91-44.18-45.36-44.18h-24.15V0h34.17c51.84,0,87.78,29.46,87.78,87.19,0,50.08-11.78,114.29-11.78,160.24,0,29.46,15.91,53.61,60.09,61.86v41.83c-44.18,8.25-60.09,32.4-60.09,61.86Z"/>
  <path class="cls-1" d="m880.59,88.6v463.88l-37.66,6.06c-137.04,21.96-235.92,68.07-294.75,102.85l-22.76,13.52-22.76-13.52c-58.83-34.78-157.71-80.89-294.75-102.85l-37.66-6.06V88.7l54.06,11.53c85.56,18.28,159.9,50.58,221.11,96l80,59.43,80-59.43c61.22-45.41,135.55-77.71,221.11-96l54.06-11.63Z"/>
</svg>